<svg width="1920" height="1080" viewBox="0 0 1920 1080" fill="none" xmlns="http://www.w3.org/2000/svg">
  <defs>
    <linearGradient id="g0" x1="0" y1="0" x2="1920" y2="1080" gradientUnits="userSpaceOnUse">
      <stop stop-color="#0f1015"/>
      <stop offset="1" stop-color="#0b0c10"/>
    </linearGradient>
    <radialGradient id="g1" cx="0" cy="0" r="1" gradientUnits="userSpaceOnUse" gradientTransform="translate(480 220) rotate(35) scale(820 520)">
      <stop stop-color="#b66dff" stop-opacity="0.22"/>
      <stop offset="1" stop-color="#b66dff" stop-opacity="0"/>
    </radialGradient>
    <radialGradient id="g2" cx="0" cy="0" r="1" gradientUnits="userSpaceOnUse" gradientTransform="translate(1550 180) rotate(15) scale(780 500)">
      <stop stop-color="#ff2c6d" stop-opacity="0.18"/>
      <stop offset="1" stop-color="#ff2c6d" stop-opacity="0"/>
    </radialGradient>
    <radialGradient id="g3" cx="0" cy="0" r="1" gradientUnits="userSpaceOnUse" gradientTransform="translate(1460 860) rotate(-10) scale(820 560)">
      <stop stop-color="#00d25b" stop-opacity="0.12"/>
      <stop offset="1" stop-color="#00d25b" stop-opacity="0"/>
    </radialGradient>
    <filter id="noise" x="0" y="0" width="1920" height="1080" filterUnits="userSpaceOnUse" color-interpolation-filters="sRGB">
      <feTurbulence type="fractalNoise" baseFrequency="0.9" numOctaves="3" stitchTiles="stitch" />
      <feColorMatrix type="matrix" values="
        1 0 0 0 0
        0 1 0 0 0
        0 0 1 0 0
        0 0 0 0.055 0" />
    </filter>
  </defs>

  <rect width="1920" height="1080" fill="url(#g0)"/>
  <rect width="1920" height="1080" fill="url(#g1)"/>
  <rect width="1920" height="1080" fill="url(#g2)"/>
  <rect width="1920" height="1080" fill="url(#g3)"/>
  <rect width="1920" height="1080" filter="url(#noise)"/>

  <!-- subtle grid -->
  <g opacity="0.15">
    <path d="M0 120H1920" stroke="white" stroke-opacity="0.06"/>
    <path d="M0 240H1920" stroke="white" stroke-opacity="0.05"/>
    <path d="M0 360H1920" stroke="white" stroke-opacity="0.05"/>
    <path d="M0 480H1920" stroke="white" stroke-opacity="0.05"/>
    <path d="M0 600H1920" stroke="white" stroke-opacity="0.05"/>
    <path d="M0 720H1920" stroke="white" stroke-opacity="0.05"/>
    <path d="M0 840H1920" stroke="white" stroke-opacity="0.05"/>
    <path d="M0 960H1920" stroke="white" stroke-opacity="0.05"/>

    <path d="M120 0V1080" stroke="white" stroke-opacity="0.05"/>
    <path d="M240 0V1080" stroke="white" stroke-opacity="0.05"/>
    <path d="M360 0V1080" stroke="white" stroke-opacity="0.05"/>
    <path d="M480 0V1080" stroke="white" stroke-opacity="0.05"/>
    <path d="M600 0V1080" stroke="white" stroke-opacity="0.05"/>
    <path d="M720 0V1080" stroke="white" stroke-opacity="0.05"/>
    <path d="M840 0V1080" stroke="white" stroke-opacity="0.05"/>
    <path d="M960 0V1080" stroke="white" stroke-opacity="0.05"/>
    <path d="M1080 0V1080" stroke="white" stroke-opacity="0.05"/>
    <path d="M1200 0V1080" stroke="white" stroke-opacity="0.05"/>
    <path d="M1320 0V1080" stroke="white" stroke-opacity="0.05"/>
    <path d="M1440 0V1080" stroke="white" stroke-opacity="0.05"/>
    <path d="M1560 0V1080" stroke="white" stroke-opacity="0.05"/>
    <path d="M1680 0V1080" stroke="white" stroke-opacity="0.05"/>
    <path d="M1800 0V1080" stroke="white" stroke-opacity="0.05"/>
  </g>
</svg>
